<?xml version="1.0" encoding="utf-8"?>
<!-- Svg Vector Icons : http://www.onlinewebfonts.com/icon -->
<!DOCTYPE svg PUBLIC "-//W3C//DTD SVG 1.1//EN" "http://www.w3.org/Graphics/SVG/1.1/DTD/svg11.dtd">
<svg version="1.1" xmlns="http://www.w3.org/2000/svg" xmlns:xlink="http://www.w3.org/1999/xlink" x="0px" y="0px" viewBox="0 0 1000 1000" enable-background="new 0 0 1000 1000" xml:space="preserve">
<metadata> Svg Vector Icons : http://www.onlinewebfonts.com/icon </metadata>
<g><g transform="translate(0.000000,512.000000) scale(0.100000,-0.100000)"><path d="M1325,120v-4900h3675h3675V120v4900H5000H1325V120z M8464.5,110.4v-4679.9H5000H1535.5V110.4v4679.9H5000h3464.5V110.4z"/><path d="M5308.2,3714.6c-160.8-411.5-890-2312.2-897.7-2337.1c-7.7-30.6,3.8-34.5,132.1-28.7l139.7,5.7l369.4,957c202.9,526.4,411.5,1066.1,463.2,1202l93.8,243.1H5467C5336.9,3756.7,5323.5,3752.9,5308.2,3714.6z"/><path d="M3468.7,2839.9L2731.8,2459v-88.1v-90l725.4-373.2c400-206.7,738.8-379,752.2-384.7c21-7.7,24.9,11.5,21,99.5l-5.7,109.1l-616.3,310.1c-338.8,170.4-622.1,315.8-629.7,321.6c-5.7,7.7,273.7,155,622.1,329.2l633.6,317.7v105.3c0,57.4-5.7,105.3-13.4,105.3C4211.4,3220.8,3874.5,3048.5,3468.7,2839.9z"/><path d="M5765.6,3115.5v-105.3l641.2-319.7L7048,2369l-641.2-319.6l-641.2-321.6v-105.3c0-57.4,5.7-105.3,15.3-105.3c7.7,1.9,344.5,172.3,750.3,380.9l736.9,380.9v91.9v91.9l-736.9,379c-405.8,206.7-742.7,379-750.3,379C5771.4,3220.8,5765.6,3172.9,5765.6,3115.5z"/><path d="M3066.8,282.7V177.4h402h402v105.3V388h-402h-402V282.7z"/><path d="M4291.8,282.7V177.4h402h402v105.3V388h-402h-402V282.7z"/><path d="M5306.2,282.7V177.4l407.7,3.8l405.8,5.7l5.7,101.4l5.7,99.5h-411.5h-413.4V282.7z"/><path d="M6531.2,244.4V139.1l407.7,3.8l405.8,5.7l5.7,101.4l5.7,99.5h-411.5h-413.4V244.4z"/><path d="M3066.8-119.3v-105.3h612.5h612.5v105.3V-14h-612.5h-612.5V-119.3z"/><path d="M4904.3-119.3v-105.3h201h201v105.3V-14h-201h-201V-119.3z"/><path d="M5918.7-119.3v-105.3h201h201v105.3V-14h-201h-201V-119.3z"/><path d="M2645.7-530.8v-95.7h612.5h612.5v95.7v95.7h-612.5h-612.5V-530.8z"/><path d="M4693.7-530.8v-95.7h201h201v95.7v95.7h-201h-201V-530.8z"/><path d="M5516.8-530.8v-95.7h402h402v95.7v95.7h-402h-402V-530.8z"/><path d="M2856.2-942.3v-105.3h612.5h612.5v105.3V-837h-612.5h-612.5V-942.3z"/><path d="M4487-936.6l5.7-101.4h201h201l5.7,101.4l5.7,99.5h-212.5h-212.5L4487-936.6z"/><path d="M5306.2-942.3v-105.3h507.2h507.2v105.3V-837h-507.2h-507.2V-942.3z"/><path d="M6937-974.8l5.7-101.4h201h201l5.7,101.4l5.7,99.5h-212.4h-212.5L6937-974.8z"/><path d="M3271.6-1252.4c-7.7-5.7-13.4-53.6-13.4-105.3v-91.9h210.5h210.5v105.3v105.3h-197.1C3373-1239,3277.3-1244.7,3271.6-1252.4z"/><path d="M4081.2-1344.3v-105.3h612.5h612.5v105.3v105.3h-612.5h-612.5V-1344.3z"/><path d="M3066.8-1746.2v-105.3h402h402v105.3v105.3h-402h-402V-1746.2z"/><path d="M4496.6-1654.3c-7.7-5.7-13.4-53.6-13.4-105.3v-91.9h612.5h612.5v105.3v105.3h-599.1C4778-1640.9,4502.3-1646.7,4496.6-1654.3z"/><path d="M3832.4-2157.7c0-72.7,7.7-95.7,28.7-97.6c15.3,0,386.6,0,823,0c436.4,0,803.9,0,813.5,0c11.5,1.9,19.1,45.9,19.1,97.6v95.7h-842.2h-842.2V-2157.7z"/><path d="M3066.8-2569.3v-105.3h612.5h612.5v105.3v105.3h-612.5h-612.5V-2569.3z"/><path d="M4904.3-2569.3v-105.3h507.2h507.2v105.3v105.3h-507.2h-507.2V-2569.3z"/><path d="M2659.1-2879.3c-7.7-5.7-13.4-53.6-13.4-105.3v-91.9h612.5h612.5v105.3v105.3h-599.1C2940.5-2865.9,2664.8-2871.7,2659.1-2879.3z"/><path d="M4291.8-2971.2v-105.3h402h402v105.3v105.3h-402h-402V-2971.2z"/><path d="M5516.8-2971.2v-105.3h402h402v105.3v105.3h-402h-402V-2971.2z"/><path d="M6741.8-3009.5v-105.3h402h401.9v105.3v105.3h-401.9h-402V-3009.5z"/><path d="M3258.2-3382.7v-95.7h612.5h612.5v95.7v95.7h-612.5h-612.5V-3382.7z"/><path d="M5095.7-3382.7v-95.7h210.5h210.5v95.7v95.7h-210.5h-210.5V-3382.7z"/><path d="M6129.3-3382.7v-95.7h201h201v95.7v95.7h-201h-201V-3382.7z"/></g></g>
</svg>